<svg xmlns="http://www.w3.org/2000/svg" xmlns:xlink="http://www.w3.org/1999/xlink" viewBox="15.167 -16.333 1000.636 1000.678"><circle fill="none" stroke="#FFF" stroke-miterlimit="10" cx="515.432" cy="392.964" r="13.399"/><defs><circle id="a" cx="515.432" cy="484.077" r="436.802"/></defs><clipPath id="b"><use xlink:href="#a" overflow="visible"/></clipPath><g clip-path="url(#b)"><defs><path id="c" d="M78.63 47.275h873.605V920.88H78.63z"/></defs><clipPath id="d"><use xlink:href="#c" overflow="visible"/></clipPath><g clip-path="url(#d)"><defs><path id="e" d="M78.63 47.275h873.605V920.88H78.63z"/></defs><clipPath id="f"><use xlink:href="#e" overflow="visible"/></clipPath><path clip-path="url(#f)" fill="#E5E5E5" d="M51.833 20.477h927.2v927.2h-927.2z"/></g><g clip-path="url(#d)"><defs><path id="g" d="M239.417 561.76c0-23.664 19.187-42.846 42.927-42.846H753.88c23.71 0 42.928 19.218 42.928 42.845v375.23c0 23.662-19.187 42.844-42.927 42.844H282.345c-23.708 0-42.927-19.218-42.927-42.845V561.76z"/></defs><clipPath id="h"><use xlink:href="#g" overflow="visible"/></clipPath><g clip-path="url(#h)"><defs><path id="i" d="M78.63 47.275h873.605V920.88H78.63z"/></defs><clipPath id="j"><use xlink:href="#i" overflow="visible"/></clipPath><path clip-path="url(#j)" fill="#FFF" d="M212.62 492.116h610.986v514.515H212.62z"/></g></g><g clip-path="url(#d)"><defs><path id="k" d="M212.62 615.426c0-23.702 19.21-42.917 42.84-42.917h525.304c23.66 0 42.842 19.235 42.842 42.916v321.49c0 23.703-19.21 42.918-42.842 42.918H255.46c-23.66 0-42.84-19.236-42.84-42.917v-321.49z"/></defs><clipPath id="l"><use xlink:href="#k" overflow="visible"/></clipPath><g clip-path="url(#l)"><defs><path id="m" d="M78.63 47.275h873.605V920.88H78.63z"/></defs><clipPath id="n"><use xlink:href="#m" overflow="visible"/></clipPath><path clip-path="url(#n)" fill="#F6F6F6" d="M185.82 545.71h664.583v460.92H185.82z"/></g></g><g clip-path="url(#d)"><defs><path id="o" d="M759.168 575.443c7.93-12.69 24.614-16.522 37.247-8.574l235.394 148.1c12.64 7.954 16.477 24.664 8.74 37.046-7.814 12.506-24.406 16.19-37.04 8.242l-235.394-148.1c-12.642-7.955-16.47-24.68-8.534-37.378l-.414.663z"/></defs><clipPath id="p"><use xlink:href="#o" overflow="visible"/></clipPath><g clip-path="url(#p)"><defs><path id="q" d="M78.63 47.275h873.605V920.88H78.63z"/></defs><clipPath id="r"><use xlink:href="#q" overflow="visible"/></clipPath><path clip-path="url(#r)" fill="#CACACA" d="M728.65 535.93h342.687v255.32H728.65z"/></g></g><g clip-path="url(#d)"><defs><circle id="s" cx="614.917" cy="487.089" r="177.198"/></defs><clipPath id="t"><use xlink:href="#s" overflow="visible"/></clipPath><g clip-path="url(#t)"><defs><path id="u" d="M78.63 47.275h873.605V920.88H78.63z"/></defs><clipPath id="v"><use xlink:href="#u" overflow="visible"/></clipPath><path opacity=".55" clip-path="url(#v)" fill="#EDEDED" d="M410.922 283.094h407.99v407.99h-407.99z"/></g></g><g clip-path="url(#d)"><defs><path id="w" d="M78.63 47.275h873.605V920.88H78.63z"/></defs><clipPath id="x"><use xlink:href="#w" overflow="visible"/></clipPath><circle clip-path="url(#x)" fill="none" stroke="#C9C9C9" stroke-width="15" stroke-miterlimit="10" cx="614.917" cy="487.089" r="177.198"/></g><g clip-path="url(#d)"><defs><circle id="y" cx="691.038" cy="397.065" r="12.137"/></defs><clipPath id="z"><use xlink:href="#y" overflow="visible"/></clipPath><g clip-path="url(#z)"><defs><path id="A" d="M78.63 47.275h873.605V920.88H78.63z"/></defs><clipPath id="B"><use xlink:href="#A" overflow="visible"/></clipPath><path clip-path="url(#B)" fill="#FFF" d="M652.1 358.128h77.876v77.876H652.1z"/></g></g><g clip-path="url(#d)"><defs><path id="C" d="M78.63 47.275h873.605V920.88H78.63z"/></defs><clipPath id="D"><use xlink:href="#C" overflow="visible"/></clipPath><path clip-path="url(#D)" fill="none" stroke="#FFF" stroke-width="15" stroke-miterlimit="10" d="M516.112 429.434s10.298-42.495 56.54-61.28c38.013-15.44 83.17-1.453 95.147 10.74"/></g></g></svg>