<?xml version="1.0" encoding="utf-8"?>
<!-- Generator: Adobe Illustrator 16.0.0, SVG Export Plug-In . SVG Version: 6.00 Build 0)  -->
<!DOCTYPE svg PUBLIC "-//W3C//DTD SVG 1.1//EN" "http://www.w3.org/Graphics/SVG/1.1/DTD/svg11.dtd">
<svg version="1.1" id="图层_1" xmlns="http://www.w3.org/2000/svg" xmlns:xlink="http://www.w3.org/1999/xlink" x="0px" y="0px"
	 width="68px" height="68px" viewBox="0 0 68 68" enable-background="new 0 0 68 68" xml:space="preserve">
<path fill="#BFBFBF" d="M8.838,42.098h0.885c0.238,0.002,0.43,0.196,0.43,0.438c0,0.24-0.188,0.438-0.43,0.438H8.838v0.887
	c-0.004,0.236-0.2,0.432-0.438,0.432c-0.239,0.004-0.435-0.188-0.438-0.424c0-0.006,0-0.006,0-0.008v-0.887H7.076
	c-0.24-0.006-0.431-0.199-0.431-0.438c0-0.242,0.188-0.438,0.431-0.438h0.885V41.21c0.005-0.235,0.199-0.43,0.438-0.43
	c0.241,0,0.438,0.188,0.438,0.43L8.838,42.098L8.838,42.098z M66.686,38.592v-0.887c0-0.238-0.191-0.434-0.434-0.434
	c-0.002,0-0.004,0-0.006,0c-0.238,0-0.436,0.191-0.438,0.434v0.887h-0.888c-0.235,0-0.431,0.193-0.429,0.432
	c0,0.002,0,0.004,0,0.008c0,0.232,0.189,0.438,0.429,0.438h0.888v0.887c0,0.24,0.195,0.432,0.438,0.432
	c0.238,0,0.434-0.189,0.438-0.432v-0.887h0.887c0.24,0,0.431-0.195,0.431-0.438c0-0.238-0.188-0.436-0.431-0.438L66.686,38.592
	L66.686,38.592z M34.844,53.052H12.779c-0.481,0-0.875-0.393-0.875-0.87c0-0.005,0-0.005,0-0.007c0-0.483,0.397-0.875,0.875-0.875
	h3.975c-0.307-0.532-0.467-1.137-0.467-1.75V24.124c0.002-1.937,1.572-3.503,3.506-3.501c0.002,0,0.003,0,0.005,0h2.626v-0.882
	c0.001-1.936,1.57-3.502,3.505-3.502c0.002,0,0.003,0,0.004,0h21.029c1.935-0.005,3.505,1.561,3.509,3.493c0,0.003,0,0.005,0,0.009
	V45.17c0,0.637-0.17,1.23-0.467,1.746h4.85c0.484,0,0.877,0.391,0.877,0.879c0,0.48-0.392,0.875-0.875,0.875h-10.52v0.881
	c0,0.637-0.17,1.234-0.467,1.75h0.469c0.482,0,0.875,0.389,0.875,0.875c0,0.484-0.398,0.877-0.875,0.877h-4.609
	c0.398,0.67,0.313,1.553-0.271,2.135c-0.681,0.688-1.788,0.689-2.474,0.006c-0.002-0.002-0.004-0.004-0.006-0.006L34.844,53.052z
	 M38.049,51.301h2.785c0.966,0,1.748-0.781,1.748-1.758v-25.46c0-0.946-0.758-1.708-1.691-1.708H19.732
	c-0.934,0-1.691,0.764-1.691,1.708v25.459c0,0.969,0.789,1.758,1.744,1.758h13.306l-0.451-0.452
	c-0.444-0.44-0.618-1.089-0.455-1.693l-0.828-0.827c-2.719,2.022-6.563,1.459-8.587-1.259c-1.816-2.438-1.572-5.84,0.574-7.995
	c2.393-2.398,6.275-2.406,8.677-0.017c2.166,2.159,2.412,5.582,0.576,8.028l0.828,0.828c0.606-0.162,1.252,0.012,1.694,0.453
	L38.049,51.301z M44.334,46.916h2.639c0.965-0.002,1.744-0.787,1.744-1.752V19.746c0-0.973-0.781-1.754-1.744-1.754H25.92
	c-0.965,0.006-1.743,0.789-1.744,1.754v0.876h16.648c1.935-0.006,3.506,1.56,3.51,3.493c0,0.002,0,0.006,0,0.009V46.916z
	 M13.438,14.706h1.306c0.369,0,0.666,0.292,0.666,0.656c0,0.362-0.297,0.657-0.666,0.657h-1.306v1.307
	c0,0.367-0.292,0.666-0.657,0.666c-0.365-0.003-0.66-0.301-0.658-0.666l0,0v-1.305h-1.305c-0.365,0.003-0.664-0.29-0.666-0.652
	c0-0.001,0-0.003,0-0.004c0-0.362,0.297-0.657,0.666-0.657h1.305V13.4c0-0.368,0.293-0.666,0.658-0.666
	c0.363,0,0.657,0.298,0.657,0.666V14.706z M3.14,52.176c0-0.484,0.397-0.875,0.875-0.875H9.28c0.48,0,0.873,0.389,0.873,0.875
	c0,0.482-0.396,0.877-0.873,0.877H4.015c-0.481,0-0.874-0.393-0.875-0.871C3.14,52.177,3.14,52.177,3.14,52.176z M30.781,46.511
	c1.711-1.713,1.711-4.487,0-6.198c-1.711-1.713-4.486-1.713-6.199,0l0,0c-1.711,1.711-1.711,4.485,0,6.198
	C26.295,48.223,29.07,48.223,30.781,46.511L30.781,46.511z M21.547,25.881c0-0.484,0.391-0.876,0.875-0.876h9.642
	c0.483,0,0.877,0.393,0.877,0.876c0,0.481-0.394,0.877-0.877,0.877h-9.642c-0.483,0.001-0.875-0.39-0.876-0.872
	C21.547,25.885,21.547,25.883,21.547,25.881z M21.547,30.264c0-0.482,0.389-0.875,0.869-0.875h14.037
	c0.48,0,0.871,0.389,0.871,0.875c0,0.483-0.391,0.877-0.871,0.877H22.416c-0.48,0-0.87-0.392-0.869-0.873
	C21.547,30.268,21.547,30.266,21.547,30.264z M21.547,34.645c0-0.479,0.391-0.875,0.874-0.875h6.139
	c0.483,0,0.875,0.391,0.875,0.875s-0.392,0.879-0.875,0.879h-6.139c-0.482,0-0.874-0.392-0.874-0.873
	C21.547,34.648,21.547,34.646,21.547,34.645z M4.894,29.389c-1.452,0-2.63-1.178-2.631-2.629c0-1.453,1.176-2.63,2.628-2.63
	c0.001,0,0.002,0,0.003,0c1.452,0,2.629,1.176,2.629,2.629C7.522,28.21,6.346,29.389,4.894,29.389z M4.894,28.073
	c0.726,0,1.313-0.59,1.313-1.313c0-0.728-0.588-1.315-1.313-1.315l0,0c-0.728,0-1.315,0.59-1.315,1.315
	C3.578,27.484,4.166,28.073,4.894,28.073z M59.234,24.129c-1.451,0-2.629-1.179-2.629-2.63c0-1.453,1.178-2.631,2.629-2.631
	c1.453,0,2.631,1.178,2.631,2.631C61.865,22.95,60.688,24.129,59.234,24.129z M59.234,22.814c0.727,0,1.313-0.588,1.313-1.313
	c0-0.728-0.589-1.315-1.313-1.315l0,0c-0.727,0-1.313,0.589-1.313,1.315C57.921,22.226,58.51,22.814,59.234,22.814z"/>
</svg>
